PathFileType	4	(X/Y/Z)	Kaydara	
DataRate	CameraRate	NumFrames	NumMarkers	Units	OrigDataRate	OrigDataStartFrame	OrigNumFrames	
120.00	120.00	4	72	mm	120.00	168	268	
Frame#	Time	Hips			RightUpLeg			RightLeg			RightFoot			RightFoot_End			LeftUpLeg			LeftLeg			LeftFoot			LeftFoot_End			Spine			Spine1			Spine2			Spine3			Neck			Head			Head_End			RightShoulder			RightArm			RightForeArm			RightHand			RightHandThumb1			RightHandThumb2			RightHandThumb3			RightHandThumb3_End			RightInHandIndex			RightHandIndex1			RightHandIndex2			RightHandIndex3			RightHandIndex3_End			RightInHandMiddle			RightHandMiddle1			RightHandMiddle2			RightHandMiddle3			RightHandMiddle3_End			RightInHandRing			RightHandRing1			RightHandRing2			RightHandRing3			RightHandRing3_End			RightInHandPinky			RightHandPinky1			RightHandPinky2			RightHandPinky3			RightHandPinky3_End			LeftShoulder			LeftArm			LeftForeArm			LeftHand			LeftHandThumb1			LeftHandThumb2			LeftHandThumb3			LeftHandThumb3_End			LeftInHandIndex			LeftHandIndex1			LeftHandIndex2			LeftHandIndex3			LeftHandIndex3_End			LeftInHandMiddle			LeftHandMiddle1			LeftHandMiddle2			LeftHandMiddle3			LeftHandMiddle3_End			LeftInHandRing			LeftHandRing1			LeftHandRing2			LeftHandRing3			LeftHandRing3_End			LeftInHandPinky			LeftHandPinky1			LeftHandPinky2			LeftHandPinky3			LeftHandPinky3_End			
		X1	Y1	Z1	X2	Y2	Z2	X3	Y3	Z3	X4	Y4	Z4	X5	Y5	Z5	X6	Y6	Z6	X7	Y7	Z7	X8	Y8	Z8	X9	Y9	Z9	X10	Y10	Z10	X11	Y11	Z11	X12	Y12	Z12	X13	Y13	Z13	X14	Y14	Z14	X15	Y15	Z15	X16	Y16	Z16	X17	Y17	Z17	X18	Y18	Z18	X19	Y19	Z19	X20	Y20	Z20	X21	Y21	Z21	X22	Y22	Z22	X23	Y23	Z23	X24	Y24	Z24	X25	Y25	Z25	X26	Y26	Z26	X27	Y27	Z27	X28	Y28	Z28	X29	Y29	Z29	X30	Y30	Z30	X31	Y31	Z31	X32	Y32	Z32	X33	Y33	Z33	X34	Y34	Z34	X35	Y35	Z35	X36	Y36	Z36	X37	Y37	Z37	X38	Y38	Z38	X39	Y39	Z39	X40	Y40	Z40	X41	Y41	Z41	X42	Y42	Z42	X43	Y43	Z43	X44	Y44	Z44	X45	Y45	Z45	X46	Y46	Z46	X47	Y47	Z47	X48	Y48	Z48	X49	Y49	Z49	X50	Y50	Z50	X51	Y51	Z51	X52	Y52	Z52	X53	Y53	Z53	X54	Y54	Z54	X55	Y55	Z55	X56	Y56	Z56	X57	Y57	Z57	X58	Y58	Z58	X59	Y59	Z59	X60	Y60	Z60	X61	Y61	Z61	X62	Y62	Z62	X63	Y63	Z63	X64	Y64	Z64	X65	Y65	Z65	X66	Y66	Z66	X67	Y67	Z67	X68	Y68	Z68	X69	Y69	Z69	X70	Y70	Z70	X71	Y71	Z71	X72	Y72	Z72	

168	1.392	1446.805	859.65103	-201.189	1492.8938297435232	844.1046470385479	-236.6265654453538	1403.7993310028369	442.5529084210343	-268.02924306355425	1483.0087445600086	69.84997829099912	-390.58332281391154	1459.7869971015639	-27.159120278146226	-251.55451123175087	1407.9512716229049	846.5692031190616	-152.304399347961	1283.6218873584053	456.01236432439106	-70.25042548608738	1213.2279317336195	77.8836344186901	88.39504810937545	1270.346461524974	25.36094757525557	259.86898599660276	1412.332060994173	985.6557067595999	-257.8330878998166	1365.7432423670264	1059.248412545051	-299.72341117554424	1311.8388673299662	1132.022829529702	-343.1470815964175	1252.4933187323688	1194.9661229158355	-384.7690892777475	1188.1049149842338	1262.0739302451027	-425.2864666014027	1145.229671863455	1335.717781832535	-386.788999430295	1123.3619651815939	1427.2203365961907	-260.68481005228057	1218.1762732367215	1243.0603855260297	-424.4172540660313	1258.5609683428856	1242.8929237022903	-466.5238564975041	1348.543479994654	1084.5668507903692	-434.12669547041037	1409.558431058946	1075.3199344641073	-501.7180009821239	1416.9781235691098	1098.8204965880716	-504.1116822059838	1419.4172500460786	1113.404042081873	-516.3143743253563	1421.7222061197763	1120.5259910084258	-525.0672148822044	1424.162455463398	1123.8677136200122	-532.5821353255658	1420.6963837689855	1090.3541409526497	-504.3747367372571	1436.2255322230462	1100.9785475770723	-513.1498649361002	1442.4175404530197	1107.0169518859723	-523.9050509888312	1442.0351314542247	1111.6742590350516	-532.2546073178472	1438.8640156621182	1116.1383708214573	-540.2873154221483	1421.5856911676653	1081.6678581848814	-504.98351628993265	1437.2147002740028	1087.3325564397583	-513.8704728796341	1444.032618578217	1092.7393612415735	-525.6641951432015	1443.6006199800572	1097.7908894092145	-535.7653059287112	1440.1451079305957	1102.3996244147213	-544.568001768602	1421.871620946744	1075.2559183039855	-505.14590397082935	1436.284271782326	1074.7550131255339	-513.1232383158023	1442.2641269069327	1078.2502974551728	-523.4481161267479	1441.8672456975557	1082.4764385816075	-533.2155652546014	1438.6275816371917	1086.503471967045	-541.5037486853882	1421.3265731274096	1067.5892025859537	-505.4237954236988	1434.3956713010925	1062.3934143643842	-512.7677768697281	1439.1791103198943	1063.2953908794937	-521.0719532492486	1438.887197878607	1065.4603530967363	-528.213980985298	1436.0159897279023	1068.4995572877003	-535.5661002957017	1200.4980790100362	1238.7349156859314	-398.43052669640673	1176.272164132689	1200.772410209888	-355.04842294527975	1247.6641216612775	1098.6406787498547	-443.2622443063283	1351.3117155814912	1079.6715456147401	-416.43301906377786	1354.6244380740873	1102.422600950448	-419.2379224100917	1365.8176529204234	1106.2738130460966	-432.75249234047857	1373.418993489464	1106.358943613333	-443.7785393586069	1379.5902693153914	1104.208381979962	-454.3516253083571	1353.4174420369466	1096.6213747036445	-424.81606809298415	1359.4556506475733	1106.7415416154845	-445.63776940216883	1368.0210182412907	1106.1970036635194	-462.6206376196464	1375.4303379192725	1103.0239220643048	-471.6164638022812	1382.9689129686292	1098.4855786586832	-478.0084104507506	1352.8880686833234	1088.845489465152	-428.60100853888224	1358.4899766772655	1094.5125842976875	-450.95643364075613	1367.7525140974756	1092.8500680962165	-469.9231127158533	1376.6512864715269	1088.509204286176	-480.9849794142263	1384.880260769893	1083.2942049372523	-488.0803940475072	1352.3156109511683	1083.1556499021221	-430.73311653070164	1356.7092921216936	1083.4769361632484	-452.587799541167	1364.688370061163	1080.9263405200104	-469.52871899384263	1373.2219404973775	1076.1542388374755	-480.4162280133317	1380.9355531063482	1070.9736097177927	-487.19075152013465	1351.8304220955379	1075.8155847933251	-432.6708914592236	1355.4142252575177	1071.796713292348	-453.8816123209896	1361.6378145932108	1068.0338965200592	-467.9908930269383	1367.7820499847267	1063.7208963583798	-476.19525316045645	1374.5689092008452	1058.6527574121399	-482.3477243142116
169	1.4	1446.805	859.65103	-201.189	1492.5185201595523	844.1365543065446	-236.4311673232732	1403.8975615040683	442.49418165459633	-267.60803562817375	1483.4922497243651	70.25065462447391	-390.82527124550404	1460.7947660776483	-26.936654128507012	-251.99888518686996	1408.311405692845	846.5150456956173	-152.53853056219128	1283.9411708330865	456.02140594806406	-70.24690271954685	1213.0594576154779	78.28855244177406	88.85409694140678	1270.4040985943316	25.645043138971673	260.21733772100083	1412.4214740478653	985.7514441684818	-257.6754442324678	1365.8988492098924	1059.4429217413467	-299.47917827342644	1312.075246971	1132.3365506152504	-342.8218414013465	1252.80785957899	1195.403690084838	-384.3789404489854	1188.5012284970744	1262.639329251947	-424.8214191640669	1145.5971450875913	1336.2926818705732	-386.3941224298746	1123.7652842815558	1427.8677067580625	-260.3604639046101	1218.434982904739	1243.5200478224453	-423.9284795649826	1258.397278674453	1243.1812328981866	-465.7891378071356	1349.3162580260598	1086.3339904070176	-432.91656549685064	1409.8749869901012	1077.5923298819737	-500.1143116435883	1417.319369438904	1101.2007619587012	-502.42542517048787	1419.837798999808	1115.864104791414	-514.5643392372832	1422.1897069236252	1123.0355941470996	-523.2772488092434	1424.6620268462661	1126.4134597837283	-530.7627029684838	1421.0021337263365	1092.7253662417922	-502.6951359162073	1436.519256224893	1103.4668160494252	-511.3787665278255	1442.7462499149028	1109.5723408932415	-522.0800386707112	1442.417066437119	1114.2593464334605	-530.4048751486062	1439.3112278156393	1118.7399223119603	-538.4230665473453	1421.8714297448896	1084.0179172974254	-503.31974836220934	1437.477869562478	1089.7853362310464	-512.1260275418903	1444.331418483534	1095.2621982375517	-523.8633064534853	1443.9624047896448	1100.3480224555294	-533.9357459889953	1440.5777326083585	1104.974036115928	-542.7231154414594	1422.1430292040445	1077.5881746746672	-503.4955650971129	1436.5215626072418	1077.1642366630297	-511.4119984464741	1442.5299135892535	1080.717162719993	-521.6902567753183	1442.1924250240604	1084.9745702834493	-531.4314216463777	1439.0187200708447	1089.0169859489315	-539.7058481045309	1421.5857344886017	1069.8965228148172	-503.7922770314464	1434.6143071805855	1064.7564348135306	-511.09167874929335	1439.4167189071113	1065.6988879079777	-519.3628216120253	1439.1662700842928	1067.8839067180115	-526.4877512307065	1436.35241887012	1070.9351602234533	-533.8288735871412	1200.9827073532874	1239.3153706227768	-398.05280291554357	1177.1111756026803	1201.6810738682982	-354.86116115375575	1248.8951723845385	1100.5260210773167	-441.8596084337086	1351.6368844145113	1081.725359244795	-414.92983266176003	1354.9944158603314	1104.554739906963	-417.7376887643872	1366.1767989828288	1108.4160655482442	-431.16792922272924	1373.7652206090502	1108.501762657662	-442.1250750279599	1379.9211340335003	1106.3461168920376	-452.6320463025103	1353.7768732025302	1098.7435570323703	-423.2850399041473	1359.8276286428793	1108.9177887364358	-444.0033136811925	1368.3771832901114	1108.3783006234703	-460.88562154178095	1375.7666077708093	1105.1915769974155	-469.8195389529979	1383.281916907008	1100.6306138950215	-476.1606465994465	1353.2312900072434	1090.946610659979	-427.04458648491413	1358.8366672512163	1096.6550492440565	-449.2854097154606	1368.0797345828266	1094.9950617899835	-468.1393046906581	1376.9534477193392	1090.636296246567	-479.1250143493864	1385.1564586667043	1085.395848816444	-486.1640985022853	1352.6472771052659	1085.2408196929032	-429.16159384367893	1357.0346656984866	1085.5861771355594	-450.90106497549425	1364.9945154198372	1083.0346471963494	-467.74073918244295	1373.50269655172	1078.2436243207223	-478.55322422143286	1381.1913270970858	1073.0382820163904	-485.2740455303877	1352.1466931354462	1077.8784423903583	-431.08336893322763	1355.7159732665195	1073.868911037444	-452.17919238651785	1361.920649879055	1070.1003595608697	-466.2033168240089	1368.0446708667125	1065.7711408642765	-474.3509837969369	1374.8084202041373	1060.6797157545354	-480.4547381404684
170	1.408	1446.805	859.65103	-201.189	1492.0613399267063	843.8039098791535	-236.80959397632583	1403.952146225661	442.064591905091	-267.86629672292304	1483.9211506628535	70.28064896254925	-391.78548534140674	1461.7594565383517	-27.102557056047864	-253.1639138876937	1408.742678672425	846.8594682195679	-152.11885421974426	1284.3618431286286	456.41504890986135	-69.60718260667353	1213.5340101799707	78.37579483435027	88.93142846469931	1271.0895533542282	25.600198286202733	260.1861339924948	1412.5619526343987	985.7202829943311	-257.8319537558158	1366.0932956179486	1059.4559126094466	-299.62073361175453	1312.3330910624748	1132.428045221696	-342.91986331939745	1253.1287123793027	1195.6132387816454	-384.39915338604055	1188.8878870997642	1262.9700646423964	-424.7528167253732	1145.9496477133662	1336.6267620072924	-386.3896210560492	1124.1480915019738	1428.2728494452228	-260.4267502722009	1218.6852924421562	1243.7523290558381	-423.84183237596244	1258.2315465521901	1243.28708390167	-465.39766976615067	1347.8494103684984	1085.6553497608052	-431.7063678540236	1407.9153941223472	1077.4557240075812	-498.52731846719144	1415.3814477884364	1101.1710418902742	-500.753514542787	1417.9725833782684	1115.9165570116788	-512.8257202253948	1420.366709305169	1123.1397494455348	-521.497229897233	1422.8670308138885	1126.5559964474714	-528.9525036437409	1419.028184850062	1092.688177883831	-501.03197480206364	1434.5261960383402	1103.550268134136	-509.6248960152712	1440.7818666902679	1109.7263656252944	-520.2715881187087	1440.5018770418346	1114.4450342401474	-528.570105666713	1437.4579273272864	1118.943577979626	-536.571643476043	1419.8772589996686	1083.960896151861	-501.673909536296	1435.4541101891105	1089.835253286364	-510.4010786465414	1442.3363940161717	1095.3860956917363	-522.0813982103034	1442.0255132325733	1100.508672025871	-532.1233272300135	1438.7079571714985	1105.1536316558827	-540.893079063292	1420.1345739574278	1077.514179930589	-501.86421171762134	1434.4727724601917	1077.1717204842655	-509.7221101376606	1440.5036091601094	1080.7858622133776	-519.9534980884356	1440.2208370432845	1085.0769832146573	-529.666704872695	1437.1095933121833	1089.136397372714	-537.9252579669628	1419.5651851370133	1069.7985002393368	-502.1808141589935	1432.5476827640102	1064.7187787355736	-509.4385191669674	1437.3642859262889	1065.7048069248274	-517.6767049387863	1437.151906962878	1067.9117851070152	-524.7834573712327	1434.3923244040113	1070.9765766527291	-532.1118030692228	1201.46698552941	1239.657784072121	-398.07469905170007	1177.9489392968671	1202.3481693645865	-355.0914237005417	1248.428197684478	1100.20542895687	-441.60453897433075	1350.2559626669345	1081.5995643326278	-414.5923793555525	1353.6872983519538	1104.5057887777386	-417.32838998677994	1364.9253539638876	1108.3901034866033	-430.601380629397	1372.5541478961775	1108.4890253781384	-441.44707074122556	1378.7450774721256	1106.3420367237338	-451.85943075672407	1352.486023935151	1098.6976240035492	-422.8688440267171	1358.6639771637263	1108.9579160528926	-443.4303263606279	1367.2818694328816	1108.4466716197142	-460.16753226419354	1374.691520257041	1105.2557061102948	-469.00525220554994	1382.208573130284	1100.6765400229606	-475.2627080457879	1351.9393919468132	1090.8886226509421	-426.6268017087814	1357.668278337493	1096.6744956659293	-448.7138389393602	1366.9853406446841	1095.043401534567	-467.4096515530746	1375.8831806601843	1090.6786106220525	-478.2794280444713	1384.0879576043917	1085.4178011222443	-485.2270311971281	1351.351630901012	1085.1724314754179	-428.7470086546877	1355.8471656456218	1085.5791009148045	-450.3523675225176	1363.8707192277082	1083.0506900635219	-467.0547602679128	1372.401762729394	1078.2527438257384	-477.755684412927	1380.0918537711207	1073.0277284552506	-484.390611784927	1350.841152693101	1077.7930522097809	-430.6744729809054	1354.504367816328	1073.8303827967206	-451.6518367534113	1360.7583589887736	1070.0768298547166	-465.5673878488463	1366.8982319937045	1065.7408665857763	-473.6343348384702	1373.6628035460772	1060.6310413543642	-479.6623890522306
171	1.417	1446.805	859.65103	-201.189	1491.6919160392504	843.8588169183785	-236.58899427215445	1404.0270337336929	442.0447278936559	-267.5166669881003	1484.375653569163	70.7181009174208	-392.10372709372234	1462.7439061908965	-26.850653042213274	-253.6837301203132	1409.0990287304753	846.7801953968498	-152.38399535099882	1284.68564851163	456.39356546685946	-69.64727793363399	1213.6769477850048	78.32811260118561	88.72611878950336	1271.3724026013447	25.48276762923051	259.9044909518436	1412.641834221698	985.8238811362748	-257.6504946652652	1366.2363486460704	1059.6602998080728	-299.34622554906156	1312.5537625584072	1132.751845379243	-342.56011796723527	1253.4268790099877	1196.0597936624795	-383.97481554732343	1189.2672320265083	1263.543371541459	-424.2539651679084	1146.3175753221037	1337.2167734658944	-385.95469484122583	1124.5489690491654	1428.9412831069835	-260.0664329700311	1218.928975234119	1244.2301693900374	-423.3084682785416	1258.0517881296382	1243.5962661449441	-464.60562960090317	1348.9036805510868	1087.7591668075984	-430.5003518959815	1408.4961543557092	1080.0326053729393	-496.92801266208295	1415.9846257085255	1103.8524982369495	-499.0734269751478	1418.6510907176112	1118.6753844465895	-511.0809863655156	1421.0893835376658	1125.9466717724233	-519.7117372273053	1423.6194161485903	1129.3980592163111	-527.1366780014104	1419.5956689323798	1095.3610848034607	-499.35813704516664	1435.0772366390881	1106.337091208393	-507.8598866115863	1441.3641742925727	1112.578479551508	-518.4516840455358	1441.1351177105942	1117.3259395171701	-526.7243731243339	1438.154550442384	1121.8403599339536	-534.7101284836045	1420.424769743443	1086.6134120679096	-500.015237464404	1435.9747667260729	1092.587860175473	-508.66168165654955	1442.8886439869937	1098.2068713828837	-520.2844055798898	1442.6379918914274	1103.36270295802	-530.2962785370217	1439.389199945172	1108.024323559037	-539.0493031883631	1420.6679052598936	1080.1495128761871	-500.21850170842396	1434.9682856636553	1079.8822021976296	-508.01507817994946	1441.0241230290771	1083.552460021658	-518.1987517191743	1440.7980968908428	1087.8739079337622	-527.8842881438483	1437.7508761146692	1091.9481496892295	-536.1277452404727	1420.08652057169	1072.4097275724987	-500.55328837382285	1433.0252782346647	1067.3845372712528	-507.76567497460536	1437.858116561083	1068.4100168385273	-515.969804709149	1437.6852864784987	1070.6364607122266	-523.058385318369	1434.9813652807725	1073.7128628677933	-530.3745020476216	1201.931698747402	1240.235519028406	-397.6731547598265	1178.7689942373206	1203.2490109832993	-354.89979030336497	1249.731722472143	1102.1893169861135	-440.1628987999109	1350.6513741075896	1083.7415593062378	-413.0541925276236	1354.1370413354603	1106.7214699411636	-415.7693698118881	1365.3893485118765	1110.6151223653987	-428.9318313659185	1373.0257612623082	1110.7151242042003	-439.6931870527006	1379.2210825466677	1108.5643861415226	-450.0289701167323	1352.9367871285308	1100.9065989255632	-421.2877594659816	1359.172294483279	1111.223170030033	-441.7296693802969	1367.807384593867	1110.719071113874	-458.35067908807105	1375.2126073464992	1107.5150412268208	-467.11331544452855	1382.7157739775598	1102.9132381813672	-473.3066964034527	1352.3808139558405	1093.0793510071162	-425.02832408793836	1358.1607867433927	1098.9102527194316	-446.98934339630705	1367.495170768173	1097.2843415950535	-465.55641850097544	1376.3869662082682	1092.9025158109148	-476.33466970307154	1384.5762158025652	1087.6163227284844	-483.21171949693456	1351.7852151850877	1087.349135579975	-427.13956131337756	1356.320390809218	1087.7848665019144	-448.6249702391994	1364.3574773177693	1085.2581956967451	-465.2133518396884	1372.8818608085508	1080.442359619962	-475.8250411911119	1380.5569634022459	1075.192787296372	-482.3931822279178	1351.2622319617078	1079.949596715407	-429.0580840652102	1354.954880769509	1076.0021740667812	-449.92075198613935	1361.217096680863	1072.2455794586983	-463.74273119614776	1367.3508471567245	1067.8944168194014	-471.7434872924409	1374.1014131371026	1062.7615996444013	-477.711737549242
